<svg width="32" height="32" viewBox="0 0 32 32" fill="none" xmlns="http://www.w3.org/2000/svg">
<circle cx="16" cy="16" r="16" fill="#DEDFF1"/>
<path d="M9.875 23H22.125C22.3571 23 22.5796 22.9263 22.7437 22.795C22.9078 22.6637 23 22.4857 23 22.3V12.0898C23 11.9042 22.9077 11.7261 22.7436 11.5949L19.7564 9.2051C19.5923 9.07382 19.3698 9.00004 19.1378 9H9.875C9.64294 9 9.42038 9.07375 9.25628 9.20503C9.09219 9.3363 9 9.51435 9 9.7V22.3C9 22.4857 9.09219 22.6637 9.25628 22.795C9.42038 22.9263 9.64294 23 9.875 23ZM15.125 11.8C15.125 11.6143 15.2172 11.4363 15.3813 11.305C15.5454 11.1737 15.7679 11.1 16 11.1C16.2321 11.1 16.4546 11.1737 16.6187 11.305C16.7828 11.4363 16.875 11.6143 16.875 11.8V16C16.875 16.1857 16.7828 16.3637 16.6187 16.495C16.4546 16.6263 16.2321 16.7 16 16.7C15.7679 16.7 15.5454 16.6263 15.3813 16.495C15.2172 16.3637 15.125 16.1857 15.125 16V11.8ZM15.125 18.8C15.125 18.6143 15.2172 18.4363 15.3813 18.305C15.5454 18.1737 15.7679 18.1 16 18.1C16.2321 18.1 16.4546 18.1737 16.6187 18.305C16.7828 18.4363 16.875 18.6143 16.875 18.8V19.5C16.875 19.6857 16.7828 19.8637 16.6187 19.995C16.4546 20.1263 16.2321 20.2 16 20.2C15.7679 20.2 15.5454 20.1263 15.3813 19.995C15.2172 19.8637 15.125 19.6857 15.125 19.5V18.8Z" fill="#9F9DF3"/>
</svg>
