<svg width="33" height="32" viewBox="0 0 33 32" fill="none" xmlns="http://www.w3.org/2000/svg">
<circle cx="16.4667" cy="16" r="16" fill="#FEDBDB"/>
<path d="M17.562 19.5913H12.2537C11.7115 19.5913 11.2648 19.2171 11.2648 18.7387V10.9712C11.2648 10.4928 11.7115 10.1164 12.2537 10.1164H19.1262C19.6689 10.1164 20.1232 10.4928 20.1232 10.9712V16.2549L20.7418 16.8681L21.3734 16.2443C21.3814 16.2368 21.3885 16.2306 21.3885 16.223V10.1395C21.3885 9.51032 20.8156 9 20.1021 9H11.2256C10.5412 9 10 9.48949 10 10.0934V19.5993C10 20.2289 10.5643 20.7406 11.2778 20.7406H16.7786C16.7877 20.7406 16.7967 20.7166 16.8062 20.7078L17.7504 19.7802L17.562 19.5913Z" fill="#FB5A7C"/>
<path d="M18.5966 11.5715H12.8984C12.5481 11.5715 12.2652 11.8212 12.2652 12.1302C12.2652 12.4388 12.5481 12.688 12.8984 12.688H18.5966C18.9479 12.688 19.2318 12.4383 19.2318 12.1302C19.2318 11.8207 18.9479 11.5715 18.5966 11.5715Z" fill="#FB5A7C"/>
<path d="M18.5966 13.4324H12.8984C12.5481 13.4324 12.2652 13.6647 12.2652 13.9737C12.2652 14.281 12.5481 14.5151 12.8984 14.5151H18.5966C18.9479 14.5151 19.2318 14.281 19.2318 13.9737C19.2318 13.6651 18.9479 13.4324 18.5966 13.4324Z" fill="#FB5A7C"/>
<path d="M16.9665 16.1015C17.5992 15.5974 18.47 15.4693 19.2187 15.7123C19.1619 15.456 18.9057 15.26 18.5966 15.26H12.8984C12.5481 15.26 12.2652 15.5101 12.2652 15.8182C12.2652 16.1259 12.5481 16.3764 12.8984 16.3764H16.6806C16.764 16.274 16.8595 16.1867 16.9665 16.1015Z" fill="#FB5A7C"/>
<path d="M12.8984 17.0534C12.5481 17.0534 12.2652 17.3026 12.2652 17.6116C12.2652 17.9207 12.5481 18.1698 12.8984 18.1698H16.3475C16.2128 17.7974 16.1997 17.4254 16.3058 17.053L12.8984 17.0534Z" fill="#FB5A7C"/>
<path d="M22.2281 19.7882L22.9733 19.0584L23.8416 18.2098C24.2502 17.809 24.2155 17.1896 23.7607 16.8287C23.3045 16.4669 22.605 16.4993 22.1945 16.8997L21.4809 17.5984L20.7352 18.3282L19.275 16.8992C18.866 16.4993 18.165 16.4656 17.7087 16.8283C17.254 17.1896 17.2183 17.8086 17.6283 18.2094L19.2418 19.7882L18.4971 20.518L17.6283 21.3658C17.2188 21.767 17.2545 22.386 17.7092 22.7473C17.9218 22.9162 18.1866 22.9987 18.4509 22.9987C18.7544 22.9987 19.0554 22.8901 19.2755 22.6755L19.989 21.9785L20.7347 21.2487L22.195 22.6768C22.4151 22.8905 22.716 23 23.0196 23C23.2834 23 23.5497 22.9167 23.7627 22.7491C24.217 22.3882 24.2537 21.7688 23.8431 21.368L22.2281 19.7882Z" fill="#FB5A7C"/>
</svg>
